<svg width="12" height="12" viewBox="0 0 12 12" fill="none" xmlns="http://www.w3.org/2000/svg">
<path d="M9 5.5C9 5.0205 8.66 4.6195 8.2095 4.523C8.3895 4.2225 8.5 3.875 8.5 3.5C8.5 2.397 7.603 1.5 6.5 1.5C5.7415 1.5 5.0895 1.9285 4.75 2.552C4.4105 1.9285 3.7585 1.5 3 1.5C1.897 1.5 1 2.397 1 3.5C1 3.951 1.156 4.3635 1.4085 4.698C1.28229 4.79029 1.17956 4.91096 1.1086 5.05028C1.03764 5.1896 1.00044 5.34365 1 5.5V9.5C1 10.0515 1.4485 10.5 2 10.5H8C8.5515 10.5 9 10.0515 9 9.5V8.181L11 9.181V5.681L9 6.681V5.5ZM6.5 2.5C7.0515 2.5 7.5 2.9485 7.5 3.5C7.5 4.0515 7.0515 4.5 6.5 4.5C5.9485 4.5 5.5 4.0515 5.5 3.5C5.5 2.9485 5.9485 2.5 6.5 2.5ZM3 2.5C3.5515 2.5 4 2.9485 4 3.5C4 4.0515 3.5515 4.5 3 4.5C2.4485 4.5 2 4.0515 2 3.5C2 2.9485 2.4485 2.5 3 2.5ZM2 9.5V5.5H8L8.001 9.5H2Z" fill="#F7D354"/>
</svg>
